<svg width="28" height="26" viewBox="0 0 28 26" fill="none" xmlns="http://www.w3.org/2000/svg">
<path d="M6.78906 18.668H16.5466L10.8847 24.7074C10.437 25.1849 9.81164 25.4558 9.15709 25.4558C7.84927 25.4558 6.78906 24.3956 6.78906 23.0878V18.668Z" fill="#212121"/>
<path d="M21 0C24.866 0 28 3.13401 28 7V11.667C27.9998 15.5328 24.8659 18.667 21 18.667H7C3.13412 18.667 0.000175836 15.5328 0 11.667V7C0 3.13401 3.13401 0 7 0H21ZM8.16699 7.77832C7.52266 7.77832 7 8.30098 7 8.94531C7.00023 9.58945 7.5228 10.1113 8.16699 10.1113C8.81103 10.1112 9.33277 9.58934 9.33301 8.94531C9.33301 8.30109 8.81117 7.7785 8.16699 7.77832ZM13.6113 7.77832C12.967 7.77832 12.4443 8.30098 12.4443 8.94531C12.4446 9.58945 12.9671 10.1113 13.6113 10.1113C14.2554 10.1112 14.7771 9.58937 14.7773 8.94531C14.7773 8.30105 14.2556 7.77844 13.6113 7.77832ZM19.0557 7.77832C18.4113 7.77832 17.8887 8.30098 17.8887 8.94531C17.8889 9.58945 18.4115 10.1113 19.0557 10.1113C19.6998 10.1113 20.2224 9.58941 20.2227 8.94531C20.2227 8.30102 19.6999 7.77838 19.0557 7.77832Z" fill="#212121"/>
</svg>
