<svg width="28" height="28" viewBox="0 0 28 28" fill="none" xmlns="http://www.w3.org/2000/svg">
<path d="M1.12 0C0.50176 0 0 0.482462 0 1.07692V23.6923C0 26.0712 2.00592 28 4.48 28H21.28H22.4H23.52C25.9941 28 28 26.0712 28 23.6923V8.61539C28 8.02092 27.4982 7.53846 26.88 7.53846H24.64V23.6923C24.64 24.2878 24.1382 24.7692 23.52 24.7692C22.9018 24.7692 22.4 24.2878 22.4 23.6923V1.07692C22.4 0.482462 21.8982 0 21.28 0H1.12ZM3.36 4.30769H19.04V7.53846H3.36V4.30769ZM3.36 11.8462H10.08V14H3.36V11.8462ZM12.32 11.8462H19.04V14H12.32V11.8462ZM3.36 16.1538H10.08V18.3077H3.36V16.1538ZM12.32 16.1538H19.04V18.3077H12.32V16.1538ZM3.36 20.4615H10.08V22.6154H3.36V20.4615ZM12.32 20.4615H19.04V22.6154H12.32V20.4615Z" fill="white"/>
</svg>
