<svg width="28" height="28" viewBox="0 0 28 28" fill="none" xmlns="http://www.w3.org/2000/svg">
<g clip-path="url(#clip0_6788_16)">
<path d="M14 -0.402344C6.2685 -0.402344 0 5.86616 0 13.5977C0 20.1578 4.51734 25.647 10.6073 27.166C10.542 26.977 10.5 26.7577 10.5 26.4858V24.093C9.93184 24.093 8.97985 24.093 8.74066 24.093C7.78285 24.093 6.93116 23.6812 6.51816 22.9158C6.05966 22.0653 5.98034 20.7645 4.844 19.9688C4.50684 19.704 4.7635 19.4018 5.152 19.4427C5.8695 19.6457 6.4645 20.138 7.0245 20.8683C7.58215 21.5998 7.84465 21.7655 8.8865 21.7655C9.39165 21.7655 10.1477 21.7363 10.8593 21.6243C11.242 20.6525 11.9035 19.7577 12.712 19.3353C8.05 18.8558 5.82515 16.5365 5.82515 13.3877C5.82515 12.032 6.40266 10.7207 7.38385 9.61581C7.06185 8.51916 6.657 6.28266 7.5075 5.431C9.60516 5.431 10.8733 6.79131 11.1778 7.15881C12.2232 6.80066 13.3712 6.59766 14.5775 6.59766C15.7862 6.59766 16.9388 6.80066 17.9865 7.16116C18.2875 6.796 19.5568 5.431 21.6592 5.431C22.5132 6.28381 22.1037 8.52966 21.7782 9.624C22.7535 10.7265 23.3275 12.0343 23.3275 13.3877C23.3275 16.5342 21.1062 18.8523 16.4512 19.3342C17.7322 20.0027 18.6667 21.881 18.6667 23.2962V26.4858C18.6667 26.6072 18.6398 26.6947 18.6258 26.7985C24.0812 24.8863 28 19.7063 28 13.5977C28 5.86616 21.7315 -0.402344 14 -0.402344Z" fill="#212121"/>
</g>
<defs>
<clipPath id="clip0_6788_16">
<rect width="28" height="28" fill="white"/>
</clipPath>
</defs>
</svg>
