<svg width="35" height="34" viewBox="0 0 35 34" fill="none" xmlns="http://www.w3.org/2000/svg">
<path d="M17.5 0C7.83562 0 0 7.73093 0 17.2662C0 25.3568 5.64668 32.1266 13.2592 34C13.1775 33.7669 13.125 33.4964 13.125 33.1611V30.2101C12.4148 30.2101 11.2248 30.2101 10.9258 30.2101C9.72856 30.2101 8.66394 29.7021 8.14769 28.7582C7.57457 27.7093 7.47543 26.105 6.055 25.1237C5.63356 24.7971 5.95438 24.4244 6.44 24.4748C7.33688 24.7252 8.08062 25.3324 8.78062 26.2331C9.47769 27.1352 9.80582 27.3396 11.1081 27.3396C11.7396 27.3396 12.6846 27.3036 13.5742 27.1654C14.0525 25.9669 14.8794 24.8633 15.89 24.3424C10.0625 23.7511 7.28144 20.8907 7.28144 17.0072C7.28144 15.3353 8.00332 13.718 9.22981 12.3554C8.82731 11.0029 8.32125 8.2446 9.38438 7.19426C12.0064 7.19426 13.5917 8.87192 13.9723 9.32516C15.2789 8.88345 16.7139 8.63309 18.2219 8.63309C19.7327 8.63309 21.1736 8.88345 22.4831 9.32805C22.8594 8.87771 24.4461 7.19426 27.0739 7.19426C28.1414 8.24603 27.6296 11.0158 27.2227 12.3655C28.4419 13.7252 29.1594 15.3381 29.1594 17.0072C29.1594 20.8878 26.3827 23.7467 20.5639 24.341C22.1652 25.1655 23.3333 27.482 23.3333 29.2273V33.1611C23.3333 33.3108 23.2998 33.4187 23.2823 33.5468C30.1014 31.1885 35 24.8 35 17.2662C35 7.73093 27.1644 0 17.5 0Z" fill="white"/>
</svg>
