<svg width="117" height="22" viewBox="0 0 117 22" fill="none" xmlns="http://www.w3.org/2000/svg">
<path d="M48 10.6055C53.9296 8.34859 56.4495 6.02824 58.6066 -0.00113346C60.757 6.01743 62.9064 8.50314 69.2132 10.6055C63.2837 12.5055 59.9871 15.2099 58.6066 21.2121C56.6398 15.0834 53.9207 12.9738 48 10.6055Z" fill="#EADFFF"/>
<path d="M0 9.60547C4.74368 7.79997 6.75959 5.94368 8.48528 1.12019C10.2056 5.93504 11.9251 7.9236 16.9706 9.60547C12.227 11.1255 9.58971 13.289 8.48528 18.0908C6.91183 13.1878 4.73656 11.5001 0 9.60547Z" fill="#EADFFF"/>
<path d="M100 9.60547C104.744 7.79997 106.76 5.94368 108.485 1.12019C110.206 5.93504 111.925 7.9236 116.971 9.60547C112.227 11.1255 109.59 13.289 108.485 18.0908C106.912 13.1878 104.737 11.5001 100 9.60547Z" fill="#EADFFF"/>
</svg>
