<svg width="28" height="25" viewBox="0 0 28 25" fill="none" xmlns="http://www.w3.org/2000/svg">
<path d="M26.6468 0.567294C25.6986 -0.0834291 24.5047 -0.18085 23.4572 0.308753L1.19887 11.8144C-0.47101 12.6775 -0.373006 15.0381 1.34652 15.7987C1.71435 15.9611 2.03509 16.0835 2.28583 16.1509L5.01466 16.8204C5.95524 17.0527 6.96328 16.8816 7.77277 16.352L19.3398 7.63532C19.6032 7.43798 19.9749 7.4692 20.1963 7.70901C20.4204 7.94631 20.4204 8.31227 20.1976 8.55207L11.8686 17.5061C11.4969 17.8733 11.3251 18.3504 11.3798 18.8362C11.4345 19.3221 11.7069 19.7505 12.1269 20.0128L12.1715 20.0353L22.2837 24.7602C23.8327 25.4846 25.6464 24.4904 25.8322 22.8168L27.9845 3.41873C28.0965 2.2859 27.5975 1.22051 26.6468 0.567294Z" fill="#212121"/>
</svg>
