<svg width="149" height="110" viewBox="0 0 149 110" fill="none" xmlns="http://www.w3.org/2000/svg">
<path d="M73.6738 48.127C73.7988 48.0736 73.9403 48.073 74.0654 48.126L145.944 78.5791C146.352 78.752 146.35 79.3307 145.941 79.501L74.0625 109.379C73.9392 109.43 73.7999 109.431 73.6768 109.379L2.37305 79.5C1.96598 79.329 1.96393 78.7526 2.37012 78.5791L73.6738 48.127Z" stroke="#20192D"/>
<path d="M73.7139 37.2949C73.8389 37.2415 73.9803 37.2419 74.1055 37.2949L135.948 63.541C136.356 63.7141 136.354 64.2926 135.945 64.4629L74.1025 90.2129C73.9791 90.2643 73.8401 90.2646 73.7168 90.2129L12.3691 64.4619C11.9622 64.2909 11.9603 63.7147 12.3662 63.541L73.7139 37.2949Z" stroke="#392D4E"/>
<path d="M73.9717 26.4629C74.0967 26.4094 74.2381 26.4098 74.3633 26.4629L123.862 47.4502C124.27 47.6232 124.268 48.2019 123.859 48.3721L74.3604 68.9648C74.237 69.0162 74.0978 69.0155 73.9746 68.9639L24.8711 48.3721C24.4641 48.2011 24.4623 47.6248 24.8682 47.4512L73.9717 26.4629Z" stroke="#51416E"/>
<ellipse cx="45.0026" cy="32.5026" rx="1.66667" ry="1.66669" fill="#7637EC"/>
<ellipse cx="54.1667" cy="32.5026" rx="1.66667" ry="1.66669" fill="#A678FD"/>
<ellipse cx="54.1667" cy="14.1667" rx="1.66667" ry="1.66669" fill="#A678FD"/>
<ellipse cx="73.3307" cy="14.1667" rx="1.66667" ry="1.66669" fill="#A678FD"/>
<ellipse cx="73.3307" cy="25.8347" rx="1.66667" ry="1.66669" fill="#A678FD"/>
<ellipse cx="83.3385" cy="25.8347" rx="1.66667" ry="1.66669" fill="#A678FD"/>
<ellipse cx="83.3385" cy="38.3347" rx="1.66667" ry="1.66669" fill="#A678FD"/>
<ellipse cx="83.3385" cy="45.0026" rx="1.66667" ry="1.66669" fill="#A678FD"/>
<ellipse cx="93.3307" cy="45.8347" rx="1.66667" ry="1.66669" fill="#A678FD"/>
<ellipse cx="93.3307" cy="39.1667" rx="1.66667" ry="1.66669" fill="#A678FD"/>
<ellipse cx="93.3307" cy="29.1667" rx="1.66667" ry="1.66669" fill="#A678FD"/>
<ellipse cx="93.3307" cy="21.6667" rx="1.66667" ry="1.66669" fill="#A678FD"/>
<ellipse cx="93.3307" cy="15.8308" rx="1.66667" ry="1.66669" fill="#A678FD"/>
<ellipse cx="93.3307" cy="9.99872" rx="1.66667" ry="1.66669" fill="#7637EC"/>
<ellipse cx="103.331" cy="31.6667" rx="1.66667" ry="1.66669" fill="#A678FD"/>
<ellipse cx="103.331" cy="37.4987" rx="1.66667" ry="1.66669" fill="#A678FD"/>
<ellipse cx="93.3307" cy="59.1667" rx="1.66667" ry="1.66669" fill="#7637EC"/>
<ellipse cx="73.3307" cy="32.5026" rx="1.66667" ry="1.66669" fill="#A678FD"/>
<ellipse cx="73.3307" cy="43.3308" rx="1.66667" ry="1.66669" fill="#7637EC"/>
<ellipse cx="63.3307" cy="34.1667" rx="1.66667" ry="1.66669" fill="#A678FD"/>
<ellipse cx="63.3307" cy="28.3347" rx="1.66667" ry="1.66669" fill="#A678FD"/>
<ellipse cx="63.3307" cy="47.5026" rx="1.66667" ry="1.66669" fill="#7637EC"/>
<ellipse cx="73.3307" cy="56.6667" rx="1.66667" ry="1.66669" fill="#7637EC"/>
<ellipse cx="73.3359" cy="50.8321" rx="2.5" ry="2.50004" fill="#7637EC"/>
<ellipse cx="54.1667" cy="39.1667" rx="1.66667" ry="1.66669" fill="#A678FD"/>
<ellipse cx="54.1667" cy="50.8347" rx="1.66667" ry="1.66669" fill="#7637EC"/>
<ellipse cx="54.1667" cy="57.5026" rx="1.66667" ry="1.66669" fill="#7637EC"/>
<ellipse cx="44.9974" cy="27.5013" rx="0.833333" ry="0.833346" fill="#A678FD"/>
<ellipse cx="54.1615" cy="20.8333" rx="0.833333" ry="0.833346" fill="#A678FD"/>
<ellipse cx="54.1615" cy="26.6693" rx="0.833333" ry="0.833346" fill="#A678FD"/>
<ellipse cx="54.1615" cy="44.1693" rx="0.833333" ry="0.833346" fill="#7637EC"/>
<ellipse cx="63.3333" cy="40.8333" rx="0.833333" ry="0.833346" fill="#A678FD"/>
<ellipse cx="63.3333" cy="21.6654" rx="0.833333" ry="0.833346" fill="#D9D9D9"/>
<ellipse cx="63.3333" cy="21.6654" rx="0.833333" ry="0.833346" fill="#A678FD"/>
<ellipse cx="73.3333" cy="20.0013" rx="0.833333" ry="0.833346" fill="#A678FD"/>
<ellipse cx="73.3333" cy="0.833346" rx="0.833333" ry="0.833346" fill="#A678FD"/>
<ellipse cx="73.3333" cy="7.50131" rx="0.833333" ry="0.833346" fill="#A678FD"/>
<ellipse cx="73.3333" cy="37.5013" rx="0.833333" ry="0.833346" fill="#A678FD"/>
<ellipse cx="73.3333" cy="62.5013" rx="0.833333" ry="0.833346" fill="#7637EC"/>
<ellipse cx="93.3333" cy="53.3333" rx="0.833333" ry="0.833346" fill="#7637EC"/>
<ellipse cx="93.3333" cy="34.1654" rx="0.833333" ry="0.833346" fill="#A678FD"/>
<ellipse cx="83.3333" cy="31.6693" rx="0.833333" ry="0.833346" fill="#A678FD"/>
<ellipse cx="103.333" cy="25.8333" rx="0.833333" ry="0.833346" fill="#A678FD"/>
<ellipse cx="103.333" cy="43.3333" rx="0.833333" ry="0.833346" fill="#A678FD"/>
<ellipse cx="44.9974" cy="40.0013" rx="0.833333" ry="0.833346" fill="#7637EC"/>
</svg>
