<svg width="50" height="50" viewBox="0 0 50 50" fill="none" xmlns="http://www.w3.org/2000/svg">
<path d="M31.2158 39.4971C34.2096 38.0569 35.8694 36.8759 37.2148 34.9648L43.7656 41.5156C39.1843 46.717 32.4761 50 25 50C20.0079 50 15.3582 48.5356 11.4551 46.0146L17.9736 39.4961C17.9746 39.4965 17.9756 39.4976 17.9766 39.498L24.5967 32.8779L31.2158 39.4971ZM16.8164 25.0977L13.9766 27.9375C13.9764 27.9387 13.9758 27.9402 13.9756 27.9414L10.1982 31.7197C11.5419 34.5129 12.6598 36.1453 14.3555 37.4443L8.24512 43.5547C3.18183 38.9797 0 32.3615 0 25C0 20.2184 1.34242 15.7504 3.6709 11.9521L16.8164 25.0977ZM40.834 5.65332C46.4292 10.2381 50 17.2019 50 25C50 30.0444 48.5043 34.7388 45.9346 38.667L38.9912 31.7236C38.992 31.722 38.9934 31.7204 38.9941 31.7188L32.375 25.0996L39.1895 18.2852C37.5862 15.3656 36.2518 13.7651 34.208 12.2793L40.834 5.65332ZM25 0C29.832 0 34.343 1.37209 38.167 3.74609L24.5947 17.3193L17.7812 10.5059C15.0667 11.9965 13.492 13.2545 12.0898 15.0664L5.89746 8.87402C10.4833 3.44718 17.3387 0 25 0Z" fill="#813DFF"/>
</svg>
